<svg width="70" height="70" viewBox="0 0 70 70" fill="none" xmlns="http://www.w3.org/2000/svg">
<path d="M68.3163 48.3385L49.8468 29.7337L51.8966 19.6373C52.4256 19.8438 52.9879 19.9517 53.5556 19.9558H53.5696C56.1777 19.9866 58.3169 17.8974 58.3479 15.2893C58.3788 12.6812 56.2894 10.542 53.6813 10.5111C51.0732 10.4803 48.934 12.5695 48.9031 15.1776C48.8965 15.7357 48.9888 16.2905 49.176 16.8163L38.326 18.1405L20.6276 0.35C20.4105 0.128479 20.1141 0.00247917 19.804 0C19.4977 0.00160417 19.2044 0.123521 18.9873 0.3395L15.6786 3.6295C15.2232 4.08508 15.2232 4.82358 15.6786 5.27917L17.459 7.08517C10.5616 19.7681 12.8019 35.4741 22.9703 45.7228C23.0636 45.8121 23.1718 45.8843 23.29 45.9363C23.2165 46.3311 23.1781 46.7317 23.1756 47.1333V60.6667H9.17562C5.95562 60.6705 3.34608 63.28 3.34229 66.5V68.8333C3.34229 69.4776 3.86466 70 4.50895 70H58.1756C58.8199 70 59.3423 69.4776 59.3423 68.8333V66.5C59.3385 63.28 56.729 60.6705 53.509 60.6667H39.509V54.6688C41.7021 55.1288 43.9367 55.3633 46.1776 55.3688C51.5548 55.363 56.8464 54.0225 61.5776 51.4675L63.3673 53.2677C63.5844 53.4892 63.8808 53.6152 64.191 53.6177C64.4972 53.6161 64.7905 53.4941 65.0076 53.2782L68.3163 49.9882C68.7717 49.5326 68.7717 48.7941 68.3163 48.3385ZM51.9246 13.6348C52.8383 12.726 54.3157 12.7301 55.2244 13.6437C56.1332 14.5574 56.1291 16.0348 55.2155 16.9435C54.7781 17.3785 54.1864 17.6226 53.5695 17.6225H53.5625C52.2739 17.6158 51.2345 16.5658 51.2412 15.2771C51.2445 14.6602 51.4918 14.0699 51.9291 13.6348H51.9246ZM49.1783 21.301L47.8693 27.7445L45.298 25.158L49.1783 21.301ZM47.853 19.3282L43.653 23.5037L40.4038 20.237L47.853 19.3282ZM53.509 63C55.442 63 57.009 64.567 57.009 66.5V67.6667H5.67562V66.5C5.67562 64.567 7.2426 63 9.17562 63H53.509ZM37.1756 58.3333V60.6667H25.509V58.3333H37.1756ZM25.509 56V47.1333C25.509 44.303 28.1258 42 31.3423 42C34.5588 42 37.1756 44.303 37.1756 47.1333V56H25.509ZM39.509 52.29V47.1333C39.509 43.0162 35.8456 39.6667 31.3423 39.6667C28.4306 39.622 25.7079 41.1041 24.165 43.5738C15.2887 34.2249 13.2899 20.2875 19.1805 8.82073L59.872 49.7455C53.5886 52.9419 46.3857 53.8418 39.509 52.29ZM64.2038 50.7943L62.56 49.1412L19.7923 6.11567L18.1415 4.46133L19.7923 2.81633L37.15 20.272C37.1581 20.272 37.1628 20.2872 37.171 20.293L65.8593 49.1493L64.2038 50.7943Z" fill="#212121"/>
<path d="M31.3527 44.3333H31.3422C29.4091 44.3304 27.8398 45.895 27.8369 47.8281C27.834 49.7611 29.3986 51.3304 31.3317 51.3333H31.3422C33.2752 51.3362 34.8445 49.7716 34.8474 47.8386C34.8503 45.9055 33.2857 44.3362 31.3527 44.3333ZM32.1693 48.6605C31.9497 48.8789 31.6521 49.0011 31.3422 49C30.6979 48.9966 30.1783 48.4716 30.1816 47.8273C30.1832 47.5189 30.3069 47.2237 30.5255 47.0061C30.7426 46.7902 31.0359 46.6682 31.3422 46.6666C31.9865 46.67 32.5061 47.195 32.5027 47.8393C32.5011 48.1477 32.3774 48.4429 32.1588 48.6605H32.1693Z" fill="#2196F3"/>
</svg>
